#!OML:ASF H:\Terrain\Patient Classification 1\Walking\liu\liu.ASF
:FULLY-SPECIFIED
:DEGREES
259
root 19.420759 33.436401 -0.564526 16.503540 -15.081480 2.082240
lowerback -11.333740 2.305360 -4.808940
upperback -3.904560 3.284840 2.936400
thorax 2.108700 1.658242 5.931600
lowerneck -40.856998 -9.604300 -25.663401
upperneck 37.425999 -11.580280 26.458799
head 20.239799 -4.257760 12.040320
rclavicle -0.000000 -0.000000
rhumerus -91.940201 19.342880 -172.031998
rradius 79.422600
rwrist -43.497200
rhand -63.861801 -49.200600
rfingers 14.250040
rthumb -10.364020 -109.033798
lclavicle -0.000000 -0.000000
lhumerus -73.405998 -17.181841 178.588593
lradius 45.278198
lwrist -4.015020
lhand -18.835461 -44.690399
lfingers 14.250040
lthumb 33.088600 13.938960
rfemur -16.114300 -3.663700 31.858801
rtibia 122.297401
rfoot 10.902380 -17.929939
rtoes -30.469000
lfemur -63.461601 18.084520 -54.840401
ltibia 72.062401
lfoot -24.559401 13.758900
ltoes -0.345094
260
root 19.458900 33.488998 -0.300652 16.226521 -14.870160 2.801340
lowerback -11.478680 1.948292 -5.452760
upperback -3.626620 2.850040 2.862460
thorax 2.490720 1.431482 6.198940
lowerneck -41.196400 -9.496280 -25.645800
upperneck 37.672001 -11.419880 26.476601
head 20.365801 -4.169540 12.079520
rclavicle 0.000000 0.000000
rhumerus -91.009804 17.754160 -170.771805
rradius 79.118797
rwrist -40.922001
rhand -61.566399 -47.318600
rfingers 14.250040
rthumb -8.147580 -107.200203
lclavicle 0.000000 0.000000
lhumerus -71.784798 -18.912180 179.094406
lradius 45.920399
lwrist -2.453540
lhand -20.446600 -44.650398
lfingers 14.250040
lthumb 31.537201 14.105060
rfemur -18.690460 -3.992820 31.361799
rtibia 125.051003
rfoot 7.423680 -19.915199
rtoes -30.991600
lfemur -61.499802 17.532900 -55.681599
ltibia 70.876801
lfoot -24.869801 14.207740
ltoes -3.465340
261
root 19.509880 33.545399 -0.026451 15.956220 -14.544720 2.793120
lowerback -11.661220 1.665104 -5.087900
upperback -3.308380 2.456940 2.861540
thorax 2.957300 1.222684 5.975280
lowerneck -41.431999 -9.380820 -25.133600
upperneck 37.678799 -11.293600 26.068399
head 20.362200 -4.110400 11.857160
rclavicle 0.000000 0.000000
rhumerus -90.969002 17.489639 -170.443802
rradius 79.887199
rwrist -41.070000
rhand -61.251202 -45.617802
rfingers 14.250040
rthumb -7.843260 -105.505203
lclavicle 0.000000 0.000000
lhumerus -69.881599 -20.305201 179.115799
lradius 45.832600
lwrist -1.795504
lhand -21.925800 -46.103001
lfingers 14.250040
lthumb 30.112600 12.762060
rfemur -20.986601 -4.227320 31.519800
rtibia 127.249603
rfoot 3.443580 -21.044201
rtoes -27.311199
lfemur -59.441601 17.070860 -55.770599
ltibia 69.896202
lfoot -25.487801 14.533120
ltoes -4.984040
262
root 19.557541 33.625801 0.242112 15.748840 -14.297680 1.867626
lowerback -11.534480 1.591286 -3.821760
upperback -3.144340 2.279960 3.005720
thorax 3.091060 1.131974 5.398240
lowerneck -41.358200 -9.239640 -24.403200
upperneck 37.858398 -11.239580 25.596399
head 20.365000 -4.085620 11.567860
rclavicle -0.000000 -0.000000
rhumerus -91.495201 17.832420 -170.645203
rradius 81.102997
rwrist -42.702000
rhand -61.956600 -45.738201
rfingers 14.250040
rthumb -8.524400 -105.612396
lclavicle -0.000000 -0.000000
lhumerus -67.988998 -21.063601 178.539993
lradius 46.021000
lwrist -2.581380
lhand -21.843201 -46.383202
lfingers 14.250040
lthumb 30.191999 12.475840
rfemur -23.256800 -4.106160 32.907799
rtibia 128.890198
rfoot 0.643076 -21.430599
rtoes -29.503401
lfemur -57.476601 16.899960 -54.779400
ltibia 68.939003
lfoot -26.023001 14.659720
ltoes -5.506340
263
root 19.590759 33.662201 0.479588 15.547360 -13.853360 0.747202
lowerback -10.936860 1.292472 -2.818160
upperback -3.197740 1.809594 3.555520
thorax 2.738620 0.903430 5.357900
lowerneck -41.670601 -9.101480 -24.115000
upperneck 38.759201 -11.050220 25.051399
head 20.688601 -4.027780 11.376620
rclavicle -0.000000 0.000000
rhumerus -91.686996 17.473339 -170.069794
rradius 81.610603
rwrist -42.567600
rhand -62.123798 -47.880199
rfingers 14.250040
rthumb -8.685760 -107.750999
lclavicle -0.000000 0.000000
lhumerus -66.629799 -22.187799 178.656006
lradius 46.575600
lwrist -2.057020
lhand -21.641600 -45.656399
lfingers 14.250040
lthumb 30.386200 13.188080
rfemur -25.676399 -4.015500 34.733002
rtibia 130.343002
rfoot -1.578856 -22.327400
rtoes -32.458599
lfemur -55.786400 16.862841 -53.546799
ltibia 67.892601
lfoot -26.167200 14.404780
ltoes -5.646220
264
root 19.623260 33.695000 0.728538 15.144940 -13.442520 1.158712
lowerback -10.622660 0.798970 -3.487480
upperback -3.098860 1.179338 3.884860
thorax 2.689720 0.587776 6.032260
lowerneck -42.420799 -8.999260 -24.056000
upperneck 39.765598 -10.771560 24.428200
head 21.127199 -3.944060 11.214680
rclavicle 0.000000 -0.000000
rhumerus -91.427597 16.834761 -168.907593
rradius 81.620796
rwrist -42.218399
rhand -61.936798 -47.769402
rfingers 14.250040
rthumb -8.505160 -107.643997
lclavicle 0.000000 -0.000000
lhumerus -65.143204 -23.782200 179.313797
lradius 47.066002
lwrist 0.075531
lhand -22.815001 -46.254398
lfingers 14.250040
lthumb 29.255800 12.673820
rfemur -27.974600 -4.339620 34.614201
rtibia 131.549805
rfoot -4.898260 -22.700399
rtoes -30.839001
lfemur -53.823601 16.816200 -54.001598
ltibia 66.714401
lfoot -26.851000 13.782940
ltoes -4.759300
265
root 19.660299 33.726200 0.982744 14.789380 -13.230380 2.578260
lowerback -10.767740 0.443324 -4.806340
upperback -2.951820 0.781948 3.636340
thorax 2.939560 0.381928 6.497380
lowerneck -42.372200 -8.830200 -23.763800
upperneck 39.935799 -10.530420 23.960400
head 21.120800 -3.866260 11.031460
rclavicle 0.000000 0.000000
rhumerus -91.391800 16.983219 -168.547195
rradius 81.984596
rwrist -43.341202
rhand -63.311001 -47.833801
rfingers 14.250040
rthumb -9.832280 -107.679604
lclavicle 0.000000 0.000000
lhumerus -63.227798 -24.708401 179.198196
lradius 47.263401
lwrist 0.952032
lhand -24.097200 -48.217602
lfingers 14.250040
lthumb 28.020399 10.798180
rfemur -30.487000 -4.481020 33.309200
rtibia 132.641800
rfoot -8.425100 -22.554600
rtoes -30.360600
lfemur -51.947800 16.830139 -55.620998
ltibia 65.693398
lfoot -27.938400 13.106640
ltoes -1.858170
266
root 19.700060 33.742599 1.233934 14.490220 -12.916920 3.010340
lowerback -10.864740 0.126676 -5.042280
upperback -2.740140 0.375420 3.585300
thorax 3.240960 0.170364 6.553040
lowerneck -42.279202 -8.594680 -23.769400
upperneck 40.066601 -10.228320 24.002600
head 21.109200 -3.726620 11.101140
rclavicle 0.000000 0.000000
rhumerus -91.279602 17.268101 -168.447800
rradius 82.283798
rwrist -44.202202
rhand -64.154404 -47.909401
rfingers 14.250040
rthumb -10.646500 -107.735802
lclavicle 0.000000 0.000000
lhumerus -61.048000 -25.210199 178.695206
lradius 47.243198
lwrist 1.109574
lhand -23.744400 -48.647400
lfingers 14.250040
lthumb 28.360201 10.344600
rfemur -32.863998 -4.109180 33.287201
rtibia 133.394196
rfoot -11.976280 -22.937000
rtoes -28.885000
lfemur -49.942200 16.793020 -56.205601
ltibia 64.420998
lfoot -28.561001 12.991280
ltoes -0.332628
267
root 19.737600 33.726799 1.485798 14.116580 -12.643580 2.680340
lowerback -10.980800 -0.170668 -4.613840
upperback -2.254640 -0.048507 3.809360
thorax 3.838040 -0.056236 6.516320
lowerneck -42.657200 -8.359400 -24.077200
upperneck 40.247799 -9.868420 24.407600
head 21.215599 -3.528680 11.374360
rclavicle 0.000000 -0.000000
rhumerus -90.611801 16.539440 -167.693802
rradius 82.254402
rwrist -43.857800
rhand -62.867599 -47.567001
rfingers 14.250040
rthumb -9.403960 -107.422600
lclavicle 0.000000 -0.000000
lhumerus -58.564800 -25.584200 178.227402
lradius 47.378799
lwrist 1.604292
lhand -23.174000 -47.685799
lfingers 14.250040
lthumb 28.910000 11.267240
rfemur -35.042198 -3.792420 34.077801
rtibia 133.826401
rfoot -15.579980 -22.974600
rtoes -29.496000
lfemur -47.869202 15.996920 -55.791000
ltibia 63.207401
lfoot -29.018600 13.868420
ltoes -2.141860
268
root 19.776899 33.757000 1.741514 13.736640 -12.278100 3.262180
lowerback -10.902580 -0.564768 -5.101440
upperback -2.044160 -0.547164 3.793040
thorax 4.049880 -0.314356 6.739960
lowerneck -42.572399 -8.058040 -24.030001
upperneck 40.316601 -9.432120 24.247200
head 21.155199 -3.346420 11.376380
rclavicle 0.000000 0.000000
rhumerus -90.224197 15.903140 -167.074203
rradius 82.185600
rwrist -43.716202
rhand -61.598000 -48.057598
rfingers 14.250040
rthumb -8.178140 -107.938599
lclavicle 0.000000 0.000000
lhumerus -56.609001 -25.289000 177.701004
lradius 47.545200
lwrist 0.838450
lhand -23.497200 -47.745399
lfingers 14.250040
lthumb 28.598600 11.229960
rfemur -37.077999 -3.913940 33.681801
rtibia 133.892197
rfoot -18.843201 -22.139400
rtoes -35.934399
lfemur -45.787201 15.189080 -56.389400
ltibia 61.997799
lfoot -29.241400 14.432880
ltoes -6.075900
269
root 19.821180 33.813202 2.000080 13.277140 -11.938940 3.584340
lowerback -10.509120 -0.890232 -5.239260
upperback -1.974696 -0.980120 3.759080
thorax 3.935840 -0.530426 6.752540
lowerneck -42.711399 -7.834540 -23.869200
upperneck 40.730598 -9.149580 24.093399
head 21.282200 -3.219720 11.352040
rclavicle -0.000000 0.000000
rhumerus -90.427803 15.860220 -166.815598
rradius 82.462601
rwrist -44.524799
rhand -60.497398 -44.909000
rfingers 14.250040
rthumb -7.115180 -104.809196
lclavicle -0.000000 0.000000
lhumerus -55.160801 -26.652800 177.526398
lradius 47.839001
lwrist 1.195668
lhand -24.071800 -48.274601
lfingers 14.250040
lthumb 28.044800 10.739420
rfemur -38.837399 -3.664700 33.636600
rtibia 133.486404
rfoot -22.124800 -21.587601
rtoes -37.631001
lfemur -43.629398 15.346240 -56.849800
ltibia 61.038799
lfoot -29.854601 14.340420
ltoes -7.863040
270
root 19.847019 33.827599 2.253880 12.787080 -11.253700 4.415920
lowerback -10.538260 -1.301502 -5.997800
upperback -1.607928 -1.479422 3.527440
thorax 4.375620 -0.797372 6.904800
lowerneck -43.337399 -7.776820 -23.685600
upperneck 41.345798 -9.152160 24.252001
head 21.624800 -3.171960 11.410360
rclavicle 0.000000 -0.000000
rhumerus -90.606003 15.588200 -166.472000
rradius 83.272400
rwrist -44.798199
rhand -58.895401 -42.343399
rfingers 14.250040
rthumb -5.568180 -102.266602
lclavicle 0.000000 -0.000000
lhumerus -53.248600 -29.310801 177.408401
lradius 48.245602
lwrist 3.162600
lhand -24.851999 -48.186401
lfingers 14.250040
lthumb 27.292801 10.878840
rfemur -40.787800 -3.845740 33.013802
rtibia 133.086807
rfoot -25.493401 -21.380400
rtoes -32.230999
lfemur -41.512001 14.898140 -57.768398
ltibia 60.124401
lfoot -31.186600 14.117060
ltoes -4.996400
